<?xml version="1.0" encoding="UTF-8"?>
<svg width="165px" height="88px" viewBox="0 0 165 88" version="1.1" xmlns="http://www.w3.org/2000/svg" xmlns:xlink="http://www.w3.org/1999/xlink">
    <title>league title_bundesliga</title>
    <g id="Landing" stroke="none" stroke-width="1" fill="none" fill-rule="evenodd">
        <g id="sample-carousel-cards" transform="translate(-904.000000, -1053.000000)" fill-rule="nonzero">
            <g id="league-title_bundesliga" transform="translate(904.750000, 1053.510000)">
                <path d="M14.878,45.998 C18.75,45.998 21.598,45.278 23.422,43.838 C25.246,42.398 26.158,40.142 26.158,37.07 C26.158,35.054 25.766,33.47 24.982,32.318 C24.198,31.166 22.958,30.398 21.262,30.014 C22.478,29.566 23.342,28.854 23.854,27.878 C24.366,26.902 24.622,25.534 24.622,23.774 C24.622,20.958 23.87,18.942 22.366,17.726 C20.862,16.51 18.366,15.902 14.878,15.902 L14.878,15.902 L1.87,15.902 L1.87,45.998 L14.878,45.998 Z M14.782,27.806 L10.606,27.806 L10.606,23.102 L14.782,23.102 C15.486,23.102 15.99,23.278 16.294,23.63 C16.598,23.982 16.75,24.542 16.75,25.31 C16.75,26.206 16.598,26.846 16.294,27.23 C15.99,27.614 15.486,27.806 14.782,27.806 L14.782,27.806 Z M14.878,38.51 L10.606,38.51 L10.606,33.806 L14.878,33.806 C15.806,33.806 16.47,33.99 16.87,34.358 C17.27,34.726 17.47,35.342 17.47,36.206 C17.47,37.038 17.27,37.63 16.87,37.982 C16.47,38.334 15.806,38.51 14.878,38.51 L14.878,38.51 Z M41.902,46.526 C46.286,46.526 49.59,45.398 51.814,43.142 C54.038,40.886 55.15,37.534 55.15,33.086 L55.15,33.086 L55.15,15.902 L46.222,15.902 L46.222,33.038 C46.222,35.022 45.918,36.374 45.31,37.094 C44.702,37.814 43.55,38.174 41.854,38.174 C40.126,38.174 38.95,37.822 38.326,37.118 C37.702,36.414 37.39,35.054 37.39,33.038 L37.39,33.038 L37.39,15.902 L28.51,15.902 L28.51,33.086 C28.51,37.79 29.574,41.206 31.702,43.334 C33.83,45.462 37.23,46.526 41.902,46.526 Z M66.91,45.998 L66.91,31.07 L76.894,45.998 L85.294,45.998 L85.294,15.902 L76.99,15.902 L76.99,31.646 L66.91,15.902 L58.606,15.902 L58.606,45.998 L66.91,45.998 Z M100.318,45.998 C105.502,45.998 109.262,44.79 111.598,42.374 C113.934,39.958 115.102,36.142 115.102,30.926 C115.102,28.046 114.846,25.654 114.334,23.75 C113.822,21.846 113.022,20.318 111.934,19.166 C110.846,18.014 109.39,17.182 107.566,16.67 C105.742,16.158 103.326,15.902 100.318,15.902 L100.318,15.902 L89.038,15.902 L89.038,45.998 L100.318,45.998 Z M100.318,37.886 L97.918,37.886 L97.918,23.774 L100.318,23.774 C102.654,23.774 104.166,24.262 104.854,25.238 C105.542,26.214 105.886,28.11 105.886,30.926 C105.886,33.646 105.542,35.486 104.854,36.446 C104.166,37.406 102.654,37.886 100.318,37.886 L100.318,37.886 Z M139.006,45.998 L139.006,37.982 L126.862,37.982 L126.862,34.43 L136.798,34.43 L136.798,27.134 L126.862,27.134 L126.862,23.726 L138.574,23.726 L138.574,15.902 L117.982,15.902 L117.982,45.998 L139.006,45.998 Z M151.534,46.526 C155.534,46.526 158.494,45.718 160.414,44.102 C162.334,42.486 163.294,39.886 163.294,36.302 C163.294,34.894 163.174,33.694 162.934,32.702 C162.694,31.71 162.302,30.894 161.758,30.254 C161.278,29.678 160.638,29.19 159.838,28.79 C159.038,28.39 157.822,28.014 156.19,27.662 L156.19,27.662 L150.958,26.51 C150.51,26.414 150.198,26.27 150.022,26.078 C149.846,25.886 149.758,25.614 149.758,25.262 C149.758,24.59 149.99,24.11 150.454,23.822 C150.918,23.534 151.678,23.39 152.734,23.39 C153.854,23.39 154.942,23.43 155.998,23.51 C157.054,23.59 158.718,23.822 160.99,24.206 L160.99,24.206 L160.99,16.286 C159.998,15.998 158.814,15.782 157.438,15.638 C156.062,15.494 154.51,15.422 152.782,15.422 C148.782,15.422 145.854,16.254 143.998,17.918 C142.142,19.582 141.214,22.174 141.214,25.694 C141.214,28.03 141.702,29.838 142.678,31.118 C143.654,32.398 145.374,33.31 147.838,33.854 L147.838,33.854 L153.454,35.054 C153.934,35.182 154.246,35.342 154.39,35.534 C154.534,35.726 154.606,36.046 154.606,36.494 C154.606,37.166 154.382,37.63 153.934,37.886 C153.486,38.142 152.702,38.27 151.582,38.27 C149.726,38.27 147.862,38.142 145.99,37.886 C144.118,37.63 142.574,37.31 141.358,36.926 L141.358,36.926 L141.358,45.326 C142.286,45.678 143.702,45.966 145.606,46.19 C147.51,46.414 149.486,46.526 151.534,46.526 Z" id="BUNDES" fill="#242417"></path>
                <path d="M40.878,75.998 L41.55,72.11 L27.822,72.11 L32.91,43.358 L28.734,43.358 L22.974,75.998 L40.878,75.998 Z M55.854,46.43 L56.574,42.014 L52.158,42.014 L51.438,46.43 L55.854,46.43 Z M50.334,75.998 L54.558,52.238 L50.622,52.238 L46.398,75.998 L50.334,75.998 Z M66.03,86.702 C68.046,86.702 69.718,86.422 71.046,85.862 C72.374,85.302 73.438,84.526 74.238,83.534 C75.038,82.542 75.654,81.406 76.086,80.126 C76.518,78.846 76.862,77.47 77.118,75.998 L77.118,75.998 L80.862,54.782 C79.39,53.822 77.838,53.078 76.206,52.55 C74.574,52.022 72.91,51.758 71.214,51.758 C68.046,51.758 65.526,52.71 63.654,54.614 C61.782,56.518 60.59,59.214 60.078,62.702 L60.078,62.702 L59.742,65.054 C59.422,67.23 59.454,69.182 59.838,70.91 C60.222,72.638 60.926,73.998 61.95,74.99 C62.974,75.982 64.286,76.478 65.886,76.478 C67.102,76.478 68.374,76.158 69.702,75.518 C71.03,74.878 72.414,73.774 73.854,72.206 L73.854,72.206 L73.182,75.998 C72.926,77.47 72.574,78.742 72.126,79.814 C71.678,80.886 70.974,81.71 70.014,82.286 C69.054,82.862 67.678,83.15 65.886,83.15 C64.894,83.15 63.862,83.046 62.79,82.838 C61.718,82.63 60.59,82.286 59.406,81.806 L59.406,81.806 L58.398,85.166 C59.678,85.678 60.95,86.062 62.214,86.318 C63.478,86.574 64.75,86.702 66.03,86.702 Z M66.99,72.926 C65.614,72.926 64.654,72.246 64.11,70.886 C63.566,69.526 63.47,67.582 63.822,65.054 L63.822,65.054 L64.158,62.702 C64.51,60.43 65.278,58.638 66.462,57.326 C67.646,56.014 69.31,55.358 71.454,55.358 C73.086,55.358 74.798,55.806 76.59,56.702 L76.59,56.702 L74.718,67.214 C73.214,69.358 71.806,70.846 70.494,71.678 C69.182,72.51 68.014,72.926 66.99,72.926 Z M92.334,76.478 C93.55,76.478 94.846,76.158 96.222,75.518 C97.598,74.878 99.038,73.742 100.542,72.11 C100.606,73.294 101.014,74.278 101.766,75.062 C102.518,75.846 103.678,76.238 105.246,76.238 L105.246,76.238 L106.062,76.238 L106.734,72.638 L106.062,72.638 C105.262,72.638 104.75,72.358 104.526,71.798 C104.302,71.238 104.27,70.478 104.43,69.518 L104.43,69.518 L107.022,54.782 C105.55,53.822 104.022,53.078 102.438,52.55 C100.854,52.022 99.262,51.758 97.662,51.758 C94.59,51.758 92.11,52.726 90.222,54.662 C88.334,56.598 87.134,59.278 86.622,62.702 L86.622,62.702 L86.286,65.054 C85.966,67.23 85.998,69.182 86.382,70.91 C86.766,72.638 87.462,73.998 88.47,74.99 C89.478,75.982 90.766,76.478 92.334,76.478 Z M93.39,72.926 C92.11,72.926 91.198,72.246 90.654,70.886 C90.11,69.526 90.014,67.582 90.366,65.054 L90.366,65.054 L90.702,62.702 C91.022,60.526 91.782,58.758 92.982,57.398 C94.182,56.038 95.822,55.358 97.902,55.358 C99.406,55.358 101.022,55.79 102.75,56.654 L102.75,56.654 L100.878,67.31 C99.406,69.39 98.03,70.846 96.75,71.678 C95.47,72.51 94.35,72.926 93.39,72.926 Z" id="Liga" fill="#4E76ED"></path>
                <rect id="Rectangle" fill-opacity="0" fill="#63635E" x="0" y="0" width="164" height="87"></rect>
            </g>
        </g>
    </g>
</svg>