<?xml version="1.0" encoding="UTF-8"?>
<svg width="106px" height="71px" viewBox="0 0 106 71" version="1.1" xmlns="http://www.w3.org/2000/svg" xmlns:xlink="http://www.w3.org/1999/xlink">
    <title>league title_la liga</title>
    <g id="Landing" stroke="none" stroke-width="1" fill="none" fill-rule="evenodd">
        <g id="sample-carousel-cards" transform="translate(-904.000000, -971.000000)" fill-rule="nonzero">
            <g id="league-title_la-liga" transform="translate(904.748000, 971.030000)">
                <path d="M19.488,30.098 L19.488,21.746 L8.88,21.746 L8.88,0.002 L0,0.002 L0,30.098 L19.488,30.098 Z M28.992,30.098 L30.192,25.922 L39.984,25.922 L41.232,30.098 L50.352,30.098 L39.888,0.002 L30.624,0.002 L19.824,30.098 L28.992,30.098 Z M37.968,19.01 L32.208,19.01 L32.976,16.37 C33.296,15.314 33.64,14.122 34.008,12.794 C34.376,11.466 34.72,10.178 35.04,8.93 C35.04,8.93 35.76,11.41 37.2,16.37 L37.2,16.37 L37.968,19.01 Z" id="LA" fill="#242417"></path>
                <path d="M39.008,60.098 L39.68,56.21 L25.952,56.21 L31.04,27.458 L26.864,27.458 L21.104,60.098 L39.008,60.098 Z M53.984,30.53 L54.704,26.114 L50.288,26.114 L49.568,30.53 L53.984,30.53 Z M48.464,60.098 L52.688,36.338 L48.752,36.338 L44.528,60.098 L48.464,60.098 Z M64.16,70.802 C66.176,70.802 67.848,70.522 69.176,69.962 C70.504,69.402 71.568,68.626 72.368,67.634 C73.168,66.642 73.784,65.506 74.216,64.226 C74.648,62.946 74.992,61.57 75.248,60.098 L75.248,60.098 L78.992,38.882 C77.52,37.922 75.968,37.178 74.336,36.65 C72.704,36.122 71.04,35.858 69.344,35.858 C66.176,35.858 63.656,36.81 61.784,38.714 C59.912,40.618 58.72,43.314 58.208,46.802 L58.208,46.802 L57.872,49.154 C57.552,51.33 57.584,53.282 57.968,55.01 C58.352,56.738 59.056,58.098 60.08,59.09 C61.104,60.082 62.416,60.578 64.016,60.578 C65.232,60.578 66.504,60.258 67.832,59.618 C69.16,58.978 70.544,57.874 71.984,56.306 L71.984,56.306 L71.312,60.098 C71.056,61.57 70.704,62.842 70.256,63.914 C69.808,64.986 69.104,65.81 68.144,66.386 C67.184,66.962 65.808,67.25 64.016,67.25 C63.024,67.25 61.992,67.146 60.92,66.938 C59.848,66.73 58.72,66.386 57.536,65.906 L57.536,65.906 L56.528,69.266 C57.808,69.778 59.08,70.162 60.344,70.418 C61.608,70.674 62.88,70.802 64.16,70.802 Z M65.12,57.026 C63.744,57.026 62.784,56.346 62.24,54.986 C61.696,53.626 61.6,51.682 61.952,49.154 L61.952,49.154 L62.288,46.802 C62.64,44.53 63.408,42.738 64.592,41.426 C65.776,40.114 67.44,39.458 69.584,39.458 C71.216,39.458 72.928,39.906 74.72,40.802 L74.72,40.802 L72.848,51.314 C71.344,53.458 69.936,54.946 68.624,55.778 C67.312,56.61 66.144,57.026 65.12,57.026 Z M90.464,60.578 C91.68,60.578 92.976,60.258 94.352,59.618 C95.728,58.978 97.168,57.842 98.672,56.21 C98.736,57.394 99.144,58.378 99.896,59.162 C100.648,59.946 101.808,60.338 103.376,60.338 L103.376,60.338 L104.192,60.338 L104.864,56.738 L104.192,56.738 C103.392,56.738 102.88,56.458 102.656,55.898 C102.432,55.338 102.4,54.578 102.56,53.618 L102.56,53.618 L105.152,38.882 C103.68,37.922 102.152,37.178 100.568,36.65 C98.984,36.122 97.392,35.858 95.792,35.858 C92.72,35.858 90.24,36.826 88.352,38.762 C86.464,40.698 85.264,43.378 84.752,46.802 L84.752,46.802 L84.416,49.154 C84.096,51.33 84.128,53.282 84.512,55.01 C84.896,56.738 85.592,58.098 86.6,59.09 C87.608,60.082 88.896,60.578 90.464,60.578 Z M91.52,57.026 C90.24,57.026 89.328,56.346 88.784,54.986 C88.24,53.626 88.144,51.682 88.496,49.154 L88.496,49.154 L88.832,46.802 C89.152,44.626 89.912,42.858 91.112,41.498 C92.312,40.138 93.952,39.458 96.032,39.458 C97.536,39.458 99.152,39.89 100.88,40.754 L100.88,40.754 L99.008,51.41 C97.536,53.49 96.16,54.946 94.88,55.778 C93.6,56.61 92.48,57.026 91.52,57.026 Z" id="Liga" fill="#4E76ED"></path>
                <rect id="Rectangle" fill-opacity="0" fill="#63635E" x="0.002" y="0" width="105.15" height="70.8"></rect>
            </g>
        </g>
    </g>
</svg>