<?xml version="1.0" encoding="UTF-8"?>
<svg width="114px" height="61px" viewBox="0 0 114 61" version="1.1" xmlns="http://www.w3.org/2000/svg" xmlns:xlink="http://www.w3.org/1999/xlink">
    <title>league title_ligue I</title>
    <g id="Landing" stroke="none" stroke-width="1" fill="none" fill-rule="evenodd">
        <g id="sample-carousel-cards" transform="translate(-904.000000, -888.000000)" fill-rule="nonzero">
            <g id="league-title_ligue-I" transform="translate(904.748000, 888.076000)">
                <path d="M19.488,30.576 L19.488,22.224 L8.88,22.224 L8.88,0.48 L0,0.48 L0,30.576 L19.488,30.576 Z M30.864,30.576 L30.864,0.48 L21.984,0.48 L21.984,30.576 L30.864,30.576 Z M47.952,31.104 C49.968,31.104 52.024,30.92 54.12,30.552 C56.216,30.184 57.872,29.744 59.088,29.232 L59.088,29.232 L59.088,12.816 L46.752,12.816 L46.752,19.488 L50.976,19.488 L50.976,23.136 L50.976,23.136 L49.632,23.232 C49.184,23.264 48.752,23.28 48.336,23.28 C46.16,23.28 44.72,22.728 44.016,21.624 C43.312,20.52 42.96,18.48 42.96,15.504 C42.96,12.624 43.336,10.664 44.088,9.624 C44.84,8.584 46.448,8.064 48.912,8.064 C50.384,8.064 51.84,8.088 53.28,8.136 C54.72,8.184 56.112,8.24 57.456,8.304 L57.456,8.304 L57.456,0.528 C56.496,0.368 55.28,0.24 53.808,0.144 C52.336,0.048 50.672,0 48.816,0 C43.568,0 39.744,1.24 37.344,3.72 C34.944,6.2 33.744,10.128 33.744,15.504 C33.744,21.072 34.8,25.064 36.912,27.48 C39.024,29.896 42.704,31.104 47.952,31.104 Z M75.36,31.104 C79.744,31.104 83.048,29.976 85.272,27.72 C87.496,25.464 88.608,22.112 88.608,17.664 L88.608,17.664 L88.608,0.48 L79.68,0.48 L79.68,17.616 C79.68,19.6 79.376,20.952 78.768,21.672 C78.16,22.392 77.008,22.752 75.312,22.752 C73.584,22.752 72.408,22.4 71.784,21.696 C71.16,20.992 70.848,19.632 70.848,17.616 L70.848,17.616 L70.848,0.48 L61.968,0.48 L61.968,17.664 C61.968,22.368 63.032,25.784 65.16,27.912 C67.288,30.04 70.688,31.104 75.36,31.104 Z M113.088,30.576 L113.088,22.56 L100.944,22.56 L100.944,19.008 L110.88,19.008 L110.88,11.712 L100.944,11.712 L100.944,8.304 L112.656,8.304 L112.656,0.48 L92.064,0.48 L92.064,30.576 L113.088,30.576 Z" id="LIGUE" fill="#242417"></path>
                <polygon id="I" fill="#4E76ED" points="25.28 60.576 31.04 27.936 26.864 27.936 21.104 60.576"></polygon>
                <rect id="Rectangle" fill-opacity="0" fill="#63635E" x="0.002" y="0.004" width="113.09" height="60.58"></rect>
            </g>
        </g>
    </g>
</svg>