<?xml version="1.0" encoding="UTF-8"?>
<svg width="178px" height="72px" viewBox="0 0 178 72" version="1.1" xmlns="http://www.w3.org/2000/svg" xmlns:xlink="http://www.w3.org/1999/xlink">
    <title>league title_premier league</title>
    <g id="Landing" stroke="none" stroke-width="1" fill="none" fill-rule="evenodd">
        <g id="sample-carousel-cards" transform="translate(-1102.000000, -888.000000)" fill-rule="nonzero">
            <g id="league-title_premier-league" transform="translate(1102.620000, 888.556000)">
                <path d="M8.88,30.096 L8.88,22.128 L11.424,22.128 C15.936,22.128 19.248,21.216 21.36,19.392 C23.472,17.568 24.528,14.72 24.528,10.848 C24.528,6.912 23.528,4.12 21.528,2.472 C19.528,0.824 16.112,0 11.28,0 L11.28,0 L0,0 L0,30.096 L8.88,30.096 Z M11.712,14.4 L8.88,14.4 L8.88,8.064 L11.712,8.064 C13.12,8.064 14.096,8.288 14.64,8.736 C15.184,9.184 15.456,9.936 15.456,10.992 C15.456,12.24 15.184,13.12 14.64,13.632 C14.096,14.144 13.12,14.4 11.712,14.4 L11.712,14.4 Z M35.952,30.096 L35.952,20.688 L37.632,20.688 L42.672,30.096 L52.848,30.096 L46.272,19.488 C48.064,18.752 49.4,17.648 50.28,16.176 C51.16,14.704 51.6,12.832 51.6,10.56 C51.6,6.752 50.6,4.04 48.6,2.424 C46.6,0.808 43.184,0 38.352,0 L38.352,0 L27.072,0 L27.072,30.096 L35.952,30.096 Z M38.784,13.872 L35.952,13.872 L35.952,7.968 L38.784,7.968 C40.192,7.968 41.168,8.176 41.712,8.592 C42.256,9.008 42.528,9.712 42.528,10.704 C42.528,11.856 42.256,12.672 41.712,13.152 C41.168,13.632 40.192,13.872 38.784,13.872 L38.784,13.872 Z M76.08,30.096 L76.08,22.08 L63.936,22.08 L63.936,18.528 L73.872,18.528 L73.872,11.232 L63.936,11.232 L63.936,7.824 L75.648,7.824 L75.648,0 L55.056,0 L55.056,30.096 L76.08,30.096 Z M87.312,30.096 L87.312,14.16 L91.104,24.432 L98.064,24.432 L102,14.112 L102,30.096 L110.352,30.096 L110.352,0 L99.936,0 L94.752,13.44 L89.808,0 L79.008,0 L79.008,30.096 L87.312,30.096 Z M122.928,30.096 L122.928,0 L114.048,0 L114.048,30.096 L122.928,30.096 Z M147.696,30.096 L147.696,22.08 L135.552,22.08 L135.552,18.528 L145.488,18.528 L145.488,11.232 L135.552,11.232 L135.552,7.824 L147.264,7.824 L147.264,0 L126.672,0 L126.672,30.096 L147.696,30.096 Z M159.504,30.096 L159.504,20.688 L161.184,20.688 L166.224,30.096 L176.4,30.096 L169.824,19.488 C171.616,18.752 172.952,17.648 173.832,16.176 C174.712,14.704 175.152,12.832 175.152,10.56 C175.152,6.752 174.152,4.04 172.152,2.424 C170.152,0.808 166.736,0 161.904,0 L161.904,0 L150.624,0 L150.624,30.096 L159.504,30.096 Z M162.336,13.872 L159.504,13.872 L159.504,7.968 L162.336,7.968 C163.744,7.968 164.72,8.176 165.264,8.592 C165.808,9.008 166.08,9.712 166.08,10.704 C166.08,11.856 165.808,12.672 165.264,13.152 C164.72,13.632 163.744,13.872 162.336,13.872 L162.336,13.872 Z" id="PREMIERE" fill="#242417"></path>
                <path d="M39.008,60.096 L39.68,56.208 L25.952,56.208 L31.04,27.456 L26.864,27.456 L21.104,60.096 L39.008,60.096 Z M54.416,60.576 C55.568,60.576 56.784,60.464 58.064,60.24 C59.344,60.016 60.672,59.648 62.048,59.136 L62.048,59.136 L61.424,55.776 C60.176,56.192 58.976,56.504 57.824,56.712 C56.672,56.92 55.648,57.024 54.752,57.024 C52.256,57.024 50.608,56.328 49.808,54.936 C49.008,53.544 48.752,51.744 49.04,49.536 L49.04,49.536 L62.912,49.536 C63.648,48.32 64.152,47.192 64.424,46.152 C64.696,45.112 64.832,44.128 64.832,43.2 C64.832,41.504 64.448,40.112 63.68,39.024 C62.912,37.936 61.896,37.136 60.632,36.624 C59.368,36.112 58.016,35.856 56.576,35.856 C53.664,35.856 51.256,36.808 49.352,38.712 C47.448,40.616 46.24,43.136 45.728,46.272 L45.728,46.272 L45.296,48.72 C44.944,50.96 45.008,52.976 45.488,54.768 C45.968,56.56 46.936,57.976 48.392,59.016 C49.848,60.056 51.856,60.576 54.416,60.576 Z M60.368,46.176 L49.616,46.176 C49.968,44.032 50.736,42.36 51.92,41.16 C53.104,39.96 54.608,39.36 56.432,39.36 C57.744,39.36 58.832,39.68 59.696,40.32 C60.56,40.96 60.992,41.952 60.992,43.296 C60.992,43.712 60.952,44.16 60.872,44.64 C60.792,45.12 60.624,45.632 60.368,46.176 L60.368,46.176 Z M75.632,60.576 C76.848,60.576 78.144,60.256 79.52,59.616 C80.896,58.976 82.336,57.84 83.84,56.208 C83.904,57.392 84.312,58.376 85.064,59.16 C85.816,59.944 86.976,60.336 88.544,60.336 L88.544,60.336 L89.36,60.336 L90.032,56.736 L89.36,56.736 C88.56,56.736 88.048,56.456 87.824,55.896 C87.6,55.336 87.568,54.576 87.728,53.616 L87.728,53.616 L90.32,38.88 C88.848,37.92 87.32,37.176 85.736,36.648 C84.152,36.12 82.56,35.856 80.96,35.856 C77.888,35.856 75.408,36.824 73.52,38.76 C71.632,40.696 70.432,43.376 69.92,46.8 L69.92,46.8 L69.584,49.152 C69.264,51.328 69.296,53.28 69.68,55.008 C70.064,56.736 70.76,58.096 71.768,59.088 C72.776,60.08 74.064,60.576 75.632,60.576 Z M76.688,57.024 C75.408,57.024 74.496,56.344 73.952,54.984 C73.408,53.624 73.312,51.68 73.664,49.152 L73.664,49.152 L74,46.8 C74.32,44.624 75.08,42.856 76.28,41.496 C77.48,40.136 79.12,39.456 81.2,39.456 C82.704,39.456 84.32,39.888 86.048,40.752 L86.048,40.752 L84.176,51.408 C82.704,53.488 81.328,54.944 80.048,55.776 C78.768,56.608 77.648,57.024 76.688,57.024 Z M102.272,70.8 C104.288,70.8 105.96,70.52 107.288,69.96 C108.616,69.4 109.68,68.624 110.48,67.632 C111.28,66.64 111.896,65.504 112.328,64.224 C112.76,62.944 113.104,61.568 113.36,60.096 L113.36,60.096 L117.104,38.88 C115.632,37.92 114.08,37.176 112.448,36.648 C110.816,36.12 109.152,35.856 107.456,35.856 C104.288,35.856 101.768,36.808 99.896,38.712 C98.024,40.616 96.832,43.312 96.32,46.8 L96.32,46.8 L95.984,49.152 C95.664,51.328 95.696,53.28 96.08,55.008 C96.464,56.736 97.168,58.096 98.192,59.088 C99.216,60.08 100.528,60.576 102.128,60.576 C103.344,60.576 104.616,60.256 105.944,59.616 C107.272,58.976 108.656,57.872 110.096,56.304 L110.096,56.304 L109.424,60.096 C109.168,61.568 108.816,62.84 108.368,63.912 C107.92,64.984 107.216,65.808 106.256,66.384 C105.296,66.96 103.92,67.248 102.128,67.248 C101.136,67.248 100.104,67.144 99.032,66.936 C97.96,66.728 96.832,66.384 95.648,65.904 L95.648,65.904 L94.64,69.264 C95.92,69.776 97.192,70.16 98.456,70.416 C99.72,70.672 100.992,70.8 102.272,70.8 Z M103.232,57.024 C101.856,57.024 100.896,56.344 100.352,54.984 C99.808,53.624 99.712,51.68 100.064,49.152 L100.064,49.152 L100.4,46.8 C100.752,44.528 101.52,42.736 102.704,41.424 C103.888,40.112 105.552,39.456 107.696,39.456 C109.328,39.456 111.04,39.904 112.832,40.8 L112.832,40.8 L110.96,51.312 C109.456,53.456 108.048,54.944 106.736,55.776 C105.424,56.608 104.256,57.024 103.232,57.024 Z M128.336,60.576 C129.488,60.576 130.776,60.264 132.2,59.64 C133.624,59.016 135.264,57.728 137.12,55.776 L137.12,55.776 L136.352,60.096 L140.096,60.096 L144.272,36.336 L140.336,36.336 L137.648,51.6 C136.304,53.04 135.12,54.144 134.096,54.912 C133.072,55.68 132.176,56.2 131.408,56.472 C130.64,56.744 129.952,56.88 129.344,56.88 C128.32,56.88 127.576,56.456 127.112,55.608 C126.648,54.76 126.576,53.456 126.896,51.696 L126.896,51.696 L129.584,36.336 L125.648,36.336 L122.864,52.08 C122.416,54.608 122.68,56.656 123.656,58.224 C124.632,59.792 126.192,60.576 128.336,60.576 Z M158.432,60.576 C159.584,60.576 160.8,60.464 162.08,60.24 C163.36,60.016 164.688,59.648 166.064,59.136 L166.064,59.136 L165.44,55.776 C164.192,56.192 162.992,56.504 161.84,56.712 C160.688,56.92 159.664,57.024 158.768,57.024 C156.272,57.024 154.624,56.328 153.824,54.936 C153.024,53.544 152.768,51.744 153.056,49.536 L153.056,49.536 L166.928,49.536 C167.664,48.32 168.168,47.192 168.44,46.152 C168.712,45.112 168.848,44.128 168.848,43.2 C168.848,41.504 168.464,40.112 167.696,39.024 C166.928,37.936 165.912,37.136 164.648,36.624 C163.384,36.112 162.032,35.856 160.592,35.856 C157.68,35.856 155.272,36.808 153.368,38.712 C151.464,40.616 150.256,43.136 149.744,46.272 L149.744,46.272 L149.312,48.72 C148.96,50.96 149.024,52.976 149.504,54.768 C149.984,56.56 150.952,57.976 152.408,59.016 C153.864,60.056 155.872,60.576 158.432,60.576 Z M164.384,46.176 L153.632,46.176 C153.984,44.032 154.752,42.36 155.936,41.16 C157.12,39.96 158.624,39.36 160.448,39.36 C161.76,39.36 162.848,39.68 163.712,40.32 C164.576,40.96 165.008,41.952 165.008,43.296 C165.008,43.712 164.968,44.16 164.888,44.64 C164.808,45.12 164.64,45.632 164.384,46.176 L164.384,46.176 Z" id="League" fill="#4E76ED"></path>
                <rect id="Rectangle" fill-opacity="0" fill="#63635E" x="0" y="0.004" width="176.4" height="70.8"></rect>
            </g>
        </g>
    </g>
</svg>