<?xml version="1.0" encoding="UTF-8"?>
<svg width="111px" height="61px" viewBox="0 0 111 61" version="1.1" xmlns="http://www.w3.org/2000/svg" xmlns:xlink="http://www.w3.org/1999/xlink">
    <title>league title_serie A</title>
    <g id="Landing" stroke="none" stroke-width="1" fill="none" fill-rule="evenodd">
        <g id="sample-carousel-cards" transform="translate(-1102.000000, -976.000000)" fill-rule="nonzero">
            <g id="league-title_serie-A" transform="translate(1102.620000, 976.290000)">
                <path d="M10.32,31.106 C14.32,31.106 17.28,30.298 19.2,28.682 C21.12,27.066 22.08,24.466 22.08,20.882 C22.08,19.474 21.96,18.274 21.72,17.282 C21.48,16.29 21.088,15.474 20.544,14.834 C20.064,14.258 19.424,13.77 18.624,13.37 C17.824,12.97 16.608,12.594 14.976,12.242 L14.976,12.242 L9.744,11.09 C9.296,10.994 8.984,10.85 8.808,10.658 C8.632,10.466 8.544,10.194 8.544,9.842 C8.544,9.17 8.776,8.69 9.24,8.402 C9.704,8.114 10.464,7.97 11.52,7.97 C12.64,7.97 13.728,8.01 14.784,8.09 C15.84,8.17 17.504,8.402 19.776,8.786 L19.776,8.786 L19.776,0.866 C18.784,0.578 17.6,0.362 16.224,0.218 C14.848,0.074 13.296,0.002 11.568,0.002 C7.568,0.002 4.64,0.834 2.784,2.498 C0.928,4.162 0,6.754 0,10.274 C0,12.61 0.488,14.418 1.464,15.698 C2.44,16.978 4.16,17.89 6.624,18.434 L6.624,18.434 L12.24,19.634 C12.72,19.762 13.032,19.922 13.176,20.114 C13.32,20.306 13.392,20.626 13.392,21.074 C13.392,21.746 13.168,22.21 12.72,22.466 C12.272,22.722 11.488,22.85 10.368,22.85 C8.512,22.85 6.648,22.722 4.776,22.466 C2.904,22.21 1.36,21.89 0.144,21.506 L0.144,21.506 L0.144,29.906 C1.072,30.258 2.488,30.546 4.392,30.77 C6.296,30.994 8.272,31.106 10.32,31.106 Z M45.648,30.578 L45.648,22.562 L33.504,22.562 L33.504,19.01 L43.44,19.01 L43.44,11.714 L33.504,11.714 L33.504,8.306 L45.216,8.306 L45.216,0.482 L24.624,0.482 L24.624,30.578 L45.648,30.578 Z M57.456,30.578 L57.456,21.17 L59.136,21.17 L64.176,30.578 L74.352,30.578 L67.776,19.97 C69.568,19.234 70.904,18.13 71.784,16.658 C72.664,15.186 73.104,13.314 73.104,11.042 C73.104,7.234 72.104,4.522 70.104,2.906 C68.104,1.29 64.688,0.482 59.856,0.482 L59.856,0.482 L48.576,0.482 L48.576,30.578 L57.456,30.578 Z M60.288,14.354 L57.456,14.354 L57.456,8.45 L60.288,8.45 C61.696,8.45 62.672,8.658 63.216,9.074 C63.76,9.49 64.032,10.194 64.032,11.186 C64.032,12.338 63.76,13.154 63.216,13.634 C62.672,14.114 61.696,14.354 60.288,14.354 L60.288,14.354 Z M85.44,30.578 L85.44,0.482 L76.56,0.482 L76.56,30.578 L85.44,30.578 Z M110.208,30.578 L110.208,22.562 L98.064,22.562 L98.064,19.01 L108,19.01 L108,11.714 L98.064,11.714 L98.064,8.306 L109.776,8.306 L109.776,0.482 L89.184,0.482 L89.184,30.578 L110.208,30.578 Z" id="SERIES" fill="#242417"></path>
                <path d="M22.064,60.578 L25.856,52.994 L38.144,52.994 L39.248,60.578 L43.424,60.578 L38.288,27.938 L34.352,27.938 L17.792,60.578 L22.064,60.578 Z M37.568,49.202 L27.728,49.202 L30.512,43.586 L35.408,33.602 L36.752,43.586 L37.568,49.202 Z" id="A" fill="#4E76ED"></path>
                <rect id="Rectangle" fill-opacity="0" fill="#63635E" x="0" y="0" width="110.21" height="60.58"></rect>
            </g>
        </g>
    </g>
</svg>