<?xml version="1.0" encoding="UTF-8" standalone="no"?>
<!-- Created with Inkscape (http://www.inkscape.org/) -->

<svg
   xmlns:dc="http://purl.org/dc/elements/1.1/"
   xmlns:cc="http://creativecommons.org/ns#"
   xmlns:rdf="http://www.w3.org/1999/02/22-rdf-syntax-ns#"
   xmlns:svg="http://www.w3.org/2000/svg"
   xmlns="http://www.w3.org/2000/svg"
   xmlns:sodipodi="http://sodipodi.sourceforge.net/DTD/sodipodi-0.dtd"
   xmlns:inkscape="http://www.inkscape.org/namespaces/inkscape"
   width="273.717725804"
   height="365.339875984"
   viewBox="0 0 164.91811 220.12152"
   version="1.1"
   id="svg16355"
   inkscape:version="0.92.3 (2405546, 2018-03-11)"
   sodipodi:docname="Atletico Madrid 2017 logo.svg">
  <defs
     id="defs16349">
    <clipPath
       clipPathUnits="userSpaceOnUse"
       id="clipPath248">
      <path
         d="m 694.978,98.614 h 26.687 v 35.621 h -26.687 z"
         id="path246"
         inkscape:connector-curvature="0" />
    </clipPath>
  </defs>
  <sodipodi:namedview
     id="base"
     pagecolor="#ffffff"
     bordercolor="#666666"
     borderopacity="1.0"
     inkscape:pageopacity="0.0"
     inkscape:pageshadow="2"
     inkscape:zoom="0.7"
     inkscape:cx="332.00415"
     inkscape:cy="565.26613"
     inkscape:document-units="mm"
     inkscape:current-layer="layer1"
     showgrid="false"
     fit-margin-top="0"
     fit-margin-left="0"
     fit-margin-right="0"
     fit-margin-bottom="0"
     inkscape:window-width="1920"
     inkscape:window-height="1001"
     inkscape:window-x="-9"
     inkscape:window-y="-9"
     inkscape:window-maximized="1" />
  <metadata
     id="metadata16352">
    <rdf:RDF>
      <cc:Work
         rdf:about="">
        <dc:format>image/svg+xml</dc:format>
        <dc:type
           rdf:resource="http://purl.org/dc/dcmitype/StillImage" />
        <dc:title></dc:title>
      </cc:Work>
    </rdf:RDF>
  </metadata>
  <g
     inkscape:label="Layer 1"
     inkscape:groupmode="layer"
     id="layer1"
     transform="translate(267.66758,51.185776)">
    <path
       inkscape:connector-curvature="0"
       id="path260"
       style="fill:#ffffff;fill-opacity:1;fill-rule:nonzero;stroke:none;stroke-width:6.17971706"
       d="m -104.73687,-27.807907 c 0,-8.410595 -5.67916,-10.962818 -13.81167,-13.082461 -11.89595,-3.102218 -36.37381,-8.31172 -66.66061,-8.31172 -30.28679,0 -54.77083,5.203322 -66.66678,8.30554 -8.12633,2.125823 -13.80549,4.671866 -13.80549,13.088641 v 117.711251 0.04326 0.04326 c 0.10505,9.788672 4.7522,19.082966 12.43359,24.873356 l 63.19379,47.91135 4.84489,3.67075 4.85108,-3.67075 63.21233,-47.92371 c 7.76172,-5.85219 12.40887,-15.183559 12.40887,-24.947512 z" />
    <path
       style="fill:#262f61;fill-opacity:1;fill-rule:nonzero;stroke:none;stroke-width:23.35641098"
       d="M 311.65625 7.4902344 C 197.18649 7.4902344 104.64861 27.179378 59.6875 38.904297 C 28.97385 46.915546 7.5097656 56.538176 7.5097656 88.349609 L 7.5097656 533.24414 L 7.5097656 533.40625 L 7.5097656 533.57031 C 7.8835609 570.56687 25.44657 605.6951 54.501953 627.58008 L 293.3457 808.66211 L 311.65625 822.53516 L 329.99023 808.66211 L 568.9043 627.5332 C 598.23993 605.41469 615.80273 570.1454 615.80273 533.26562 L 615.80273 88.349609 C 615.80273 56.561534 594.33861 46.915546 563.60156 38.904297 C 518.64049 27.179378 426.12605 7.4902344 311.65625 7.4902344 z M 305 30.449219 L 312.2168 52.755859 L 335.66602 52.755859 L 316.70117 66.535156 L 323.94141 88.818359 L 305 75.037109 L 286.01172 88.818359 L 293.25195 66.535156 L 274.28711 52.755859 L 297.73633 52.755859 L 305 30.449219 z M 51.699219 62.960938 L 58.939453 85.267578 L 82.390625 85.267578 L 63.423828 99.046875 L 70.664062 121.33008 L 51.699219 107.54883 L 32.734375 121.33008 L 39.974609 99.046875 L 21.009766 85.267578 L 44.458984 85.267578 L 51.699219 62.960938 z M 552.88086 62.960938 L 560.12109 85.267578 L 583.57227 85.267578 L 564.60547 99.046875 L 571.8457 121.33008 L 552.88086 107.54883 L 533.91602 121.33008 L 541.15625 99.046875 L 522.19141 85.267578 L 545.64062 85.267578 L 552.88086 62.960938 z M 442.38281 100.37891 C 444.60166 100.68255 446.79662 100.98551 448.96875 101.3125 C 455.46183 102.2234 461.74568 103.20458 467.81836 104.18555 C 473.93775 105.18987 479.86924 106.21849 485.52148 107.26953 L 325.76367 228.55859 L 325.76367 145.48047 C 350.91854 160.40521 367.89935 158.88599 378.85352 151.92578 C 385.11302 147.95519 389.40971 142.1861 392.0957 136.7207 C 419.35264 144.73195 449.59993 127.82269 442.38281 100.37891 z M 149.70312 105.14258 C 149.91327 107.47822 150.38118 109.69879 151.03516 111.82422 C 151.05783 111.91765 151.08046 112.01009 151.10352 112.10352 C 151.12619 112.19695 151.17383 112.2679 151.19727 112.36133 C 158.18081 133.59231 186.58302 144.59238 212.74219 136.88477 C 217.62367 146.78788 229.32427 155.47662 245.65039 157.74219 C 256.62792 159.26035 269.70846 157.83487 284.18945 151.90234 L 284.18945 260.13672 L 184.20117 336.06836 C 184.5281 333.66265 184.73828 331.09387 184.73828 328.31445 L 184.73828 327.44922 L 184.73828 325.9082 L 184.73828 325.20703 C 195.66909 318.45703 205.31367 305.3075 210.14844 288.67773 C 212.29725 281.29711 213.18531 273.98788 213.11523 267.12109 C 211.10657 268.00864 208.98132 268.61466 206.97266 269.01172 C 201.67073 270.0394 197.11711 269.73633 197.09375 269.73633 C 205.85239 269.05899 212.20381 265.71976 216.33789 262.63672 C 217.5524 261.60903 218.88378 260.37005 220.28516 258.94531 C 228.92701 250.11659 234.62703 239.86302 238.01367 227.97461 L 254.45703 170.4707 C 245.86186 169.67659 237.56987 173.76553 232.94531 181.05273 L 225.00391 193.57031 L 217.22656 205.87891 C 215.47483 208.82181 212.34511 211.48516 208.79492 213.40039 C 203.3295 209.12617 199.07817 205.76232 195.71484 203.12305 C 195.20098 202.72599 194.71129 202.32878 194.24414 201.95508 L 189.05859 180.1875 L 196.60352 166.73438 C 198.77565 162.83385 199.476 158.37188 198.75195 154.09766 C 198.28484 151.48174 197.2798 148.91385 195.73828 146.60156 C 194.50037 144.77976 191.93099 144.3596 190.0625 145.55078 L 171.12109 157.64844 C 170.58391 157.11124 170.07043 156.69027 169.5332 156.36328 C 168.34205 155.61588 167.1263 155.43042 165.81836 155.64062 C 163.90312 155.96761 161.77843 157.20506 159.2793 158.88672 L 154.44336 162.41406 L 147.25 167.66797 L 141.73828 167.45898 L 137.9082 167.29492 C 134.17116 167.29492 132.67606 174.0211 136.13281 178.97266 C 139.00563 183.08338 141.27098 188.40902 142.8125 194.83203 C 142.83518 194.92546 142.88282 195.01986 142.90625 195.11328 C 142.9996 195.58041 143.0922 196.04654 143.20898 196.51367 C 143.27891 196.88737 143.37344 197.23763 143.44336 197.61133 C 144.65791 203.59057 145.28906 210.43464 145.28906 218.04883 C 145.28906 235.05229 136.13289 271.41824 124.33789 295.125 C 123.77735 296.15268 123.19339 297.17943 122.63281 298.23047 L 113.75781 313.01562 C 112.33308 315.16441 112.66013 318.41045 114.3418 320.74609 C 115.55635 322.42776 117.49508 323.64258 120.01758 323.64258 C 120.01758 323.64258 127.14061 332.61071 129.38281 349.87109 C 130.4105 357.71885 130.43405 367.29674 128.30859 378.50781 L 111.49219 391.2832 L 93.646484 404.83008 L 93.671875 116.49414 C 102.24369 114.46213 111.98269 112.29137 122.75 110.14258 C 131.1116 108.46092 140.12701 106.77753 149.70312 105.14258 z M 578.68164 152.41016 L 571.05664 158.24805 L 554.83203 170.66211 L 578.68164 152.41016 z M 519.92969 197.375 L 519.92969 632.75781 L 436.58203 695.93555 L 436.58203 261.16992 L 436.58984 261.16406 L 519.92578 197.37891 L 519.92969 197.375 z M 391.51172 208.49609 L 398.75195 230.77734 L 422.20312 230.77734 L 403.23633 244.55859 L 410.47656 266.86328 L 391.51172 253.08398 L 372.54688 266.86328 L 379.78711 244.55859 L 360.82227 230.77734 L 384.27148 230.77734 L 391.51172 208.49609 z M 51.699219 252.7793 L 58.939453 275.06055 L 82.390625 275.06055 L 63.423828 288.8418 L 70.664062 311.14648 L 51.699219 297.36719 L 32.734375 311.12305 L 39.974609 288.8418 L 21.009766 275.06055 L 44.458984 275.06055 L 51.699219 252.7793 z M 353.22461 324.95508 L 353.22461 759.12109 L 311.65625 790.63086 L 269.87695 758.96094 L 269.87695 388.74414 L 186.51758 452.53125 L 186.51758 695.76367 L 240.80469 736.92383 L 68.330078 606.18555 C 68.330078 606.17988 68.315364 606.17379 68.3125 606.16797 L 103.1582 632.57031 L 103.1582 516.33008 L 186.51367 452.52344 L 269.87109 388.73633 L 353.22461 324.95508 z M 227.73633 326.70312 L 235 349.00781 L 258.42773 349.00781 L 239.46094 362.78906 L 246.70312 385.07031 L 227.73633 371.3125 L 208.77148 385.07031 L 216.03516 362.78906 L 197.04688 349.00781 L 220.49609 349.00781 L 227.73633 326.70312 z M 51.699219 453.31836 L 58.939453 475.62305 L 82.390625 475.62305 L 63.423828 489.40234 L 70.664062 511.68555 L 51.699219 497.92773 L 32.734375 511.68555 L 39.974609 489.40234 L 21.009766 475.62305 L 44.458984 475.62305 L 51.699219 453.31836 z M 97.232422 520.86328 L 71.976562 540.19727 L 43.035156 562.33398 L 71.972656 540.17969 L 97.232422 520.86328 z M 38.998047 565.42383 C 42.939469 576.7547 49.063926 587.17362 57.09375 595.94922 C 49.062232 587.18033 42.935958 576.7605 38.994141 565.42773 L 38.998047 565.42383 z M 571.98242 589.125 C 571.68628 589.5164 571.40235 589.91609 571.09961 590.30273 C 570.77456 590.71644 570.43746 591.12119 570.10547 591.5293 C 570.43892 591.11826 570.77775 590.71163 571.10352 590.29492 C 571.40465 589.91091 571.68781 589.51374 571.98242 589.125 z M 563.63672 598.68359 C 560.96626 601.32834 558.11512 603.81264 555.07617 606.11523 C 555.02931 606.13791 555.0078 606.16249 554.98438 606.18555 L 523.32812 630.18164 L 555.08203 606.10742 C 558.10669 603.80683 560.96267 601.32584 563.63672 598.68359 z "
       id="path280"
       transform="matrix(0.26458333,0,0,0.26458333,-267.66758,-51.185776)" />
    <path
       id="path276"
       style="fill:#ce3524;fill-opacity:1;fill-rule:nonzero;stroke:none;stroke-width:6.17971706"
       d="m -111.56361,77.620538 v -90.773864 l -5.01175,3.8376038 -13.5274,10.3510262 V 116.23141 l 9.30047,-7.05106 v 0 c 1.60055,-1.2174 3.02188,-2.62638 4.23929,-4.18367 3.18873,-4.06625 4.99939,-9.145977 4.99939,-14.404916 z m -40.59147,-59.70719 v 0 l -22.05541,16.876807 V 149.66492 l 22.05541,-16.71614 z m -66.16314,50.632894 v 0 64.355578 l 22.05541,16.72231 V 51.669435 Z m -22.05541,16.879279 -8.24992,6.315671 -8.72576,6.674094 c 1.48313,4.264004 4.13423,8.039814 7.74318,10.771244 v 0 l 9.2325,6.99544 z" />
  </g>
</svg>
